<mxfile host="Electron" agent="Mozilla/5.0 (Windows NT 10.0; Win64; x64) AppleWebKit/537.36 (KHTML, like Gecko) draw.io/24.7.17 Chrome/128.0.6613.36 Electron/32.0.1 Safari/537.36" version="24.7.17">
  <diagram name="Page-1" id="bYKZcawVmoh1MrirCnYY">
    <mxGraphModel dx="819" dy="482" grid="1" gridSize="10" guides="1" tooltips="1" connect="1" arrows="1" fold="1" page="1" pageScale="1" pageWidth="1920" pageHeight="1200" math="0" shadow="0">
      <root>
        <mxCell id="0" />
        <mxCell id="1" parent="0" />
        <mxCell id="J1fNhFUEpcjUX8iGWWUW-4" value="" style="rounded=0;whiteSpace=wrap;html=1;fillColor=#dae8fc;strokeColor=#6c8ebf;" parent="1" vertex="1">
          <mxGeometry x="500" y="510" width="310" height="260" as="geometry" />
        </mxCell>
        <mxCell id="J1fNhFUEpcjUX8iGWWUW-5" value="CARI slave device" style="text;html=1;align=right;verticalAlign=middle;whiteSpace=wrap;rounded=0;" parent="1" vertex="1">
          <mxGeometry x="660" y="486" width="150" height="30" as="geometry" />
        </mxCell>
        <mxCell id="LDqPIbuOq7au3jVVhSUI-14" value="" style="edgeStyle=orthogonalEdgeStyle;rounded=0;orthogonalLoop=1;jettySize=auto;html=1;startArrow=classic;startFill=1;" edge="1" parent="1" source="J1fNhFUEpcjUX8iGWWUW-6" target="LDqPIbuOq7au3jVVhSUI-1">
          <mxGeometry relative="1" as="geometry" />
        </mxCell>
        <mxCell id="J1fNhFUEpcjUX8iGWWUW-6" value="Subdevice 0" style="rounded=0;whiteSpace=wrap;html=1;" parent="1" vertex="1">
          <mxGeometry x="700" y="530" width="90" height="40" as="geometry" />
        </mxCell>
        <mxCell id="LDqPIbuOq7au3jVVhSUI-15" value="" style="edgeStyle=orthogonalEdgeStyle;rounded=0;orthogonalLoop=1;jettySize=auto;html=1;startArrow=classic;startFill=1;" edge="1" parent="1" source="J1fNhFUEpcjUX8iGWWUW-7" target="LDqPIbuOq7au3jVVhSUI-1">
          <mxGeometry relative="1" as="geometry" />
        </mxCell>
        <mxCell id="J1fNhFUEpcjUX8iGWWUW-7" value="Subdevice 1" style="rounded=0;whiteSpace=wrap;html=1;" parent="1" vertex="1">
          <mxGeometry x="700" y="590" width="90" height="40" as="geometry" />
        </mxCell>
        <mxCell id="LDqPIbuOq7au3jVVhSUI-16" value="" style="edgeStyle=orthogonalEdgeStyle;rounded=0;orthogonalLoop=1;jettySize=auto;html=1;startArrow=classic;startFill=1;" edge="1" parent="1" source="J1fNhFUEpcjUX8iGWWUW-8" target="LDqPIbuOq7au3jVVhSUI-1">
          <mxGeometry relative="1" as="geometry" />
        </mxCell>
        <mxCell id="J1fNhFUEpcjUX8iGWWUW-8" value="Subdevice 2" style="rounded=0;whiteSpace=wrap;html=1;" parent="1" vertex="1">
          <mxGeometry x="700" y="650" width="90" height="40" as="geometry" />
        </mxCell>
        <mxCell id="LDqPIbuOq7au3jVVhSUI-17" value="" style="edgeStyle=orthogonalEdgeStyle;rounded=0;orthogonalLoop=1;jettySize=auto;html=1;startArrow=classic;startFill=1;" edge="1" parent="1" source="J1fNhFUEpcjUX8iGWWUW-33" target="LDqPIbuOq7au3jVVhSUI-1">
          <mxGeometry relative="1" as="geometry" />
        </mxCell>
        <mxCell id="J1fNhFUEpcjUX8iGWWUW-33" value="Subdevice N" style="rounded=0;whiteSpace=wrap;html=1;" parent="1" vertex="1">
          <mxGeometry x="700" y="710" width="90" height="40" as="geometry" />
        </mxCell>
        <mxCell id="LDqPIbuOq7au3jVVhSUI-11" style="edgeStyle=orthogonalEdgeStyle;rounded=0;orthogonalLoop=1;jettySize=auto;html=1;exitX=1;exitY=0.5;exitDx=0;exitDy=0;entryX=1;entryY=0.5;entryDx=0;entryDy=0;startArrow=classic;startFill=1;" edge="1" parent="1" source="LDqPIbuOq7au3jVVhSUI-1" target="LDqPIbuOq7au3jVVhSUI-7">
          <mxGeometry relative="1" as="geometry" />
        </mxCell>
        <mxCell id="LDqPIbuOq7au3jVVhSUI-1" value="Device controller" style="rounded=0;whiteSpace=wrap;html=1;textDirection=vertical-lr;direction=west;" vertex="1" parent="1">
          <mxGeometry x="610" y="530" width="50" height="220" as="geometry" />
        </mxCell>
        <mxCell id="LDqPIbuOq7au3jVVhSUI-7" value="CARI" style="rounded=0;whiteSpace=wrap;html=1;" vertex="1" parent="1">
          <mxGeometry x="520" y="530" width="50" height="220" as="geometry" />
        </mxCell>
        <mxCell id="LDqPIbuOq7au3jVVhSUI-12" style="edgeStyle=orthogonalEdgeStyle;rounded=0;orthogonalLoop=1;jettySize=auto;html=1;exitX=1;exitY=0.5;exitDx=0;exitDy=0;startArrow=classic;startFill=1;" edge="1" parent="1">
          <mxGeometry relative="1" as="geometry">
            <mxPoint x="520" y="639.66" as="sourcePoint" />
            <mxPoint x="480" y="640" as="targetPoint" />
            <Array as="points">
              <mxPoint x="501" y="639.66" />
              <mxPoint x="501" y="639.66" />
            </Array>
          </mxGeometry>
        </mxCell>
      </root>
    </mxGraphModel>
  </diagram>
</mxfile>
